<svg width="64" height="64" viewBox="0 0 64 64" fill="none" xmlns="http://www.w3.org/2000/svg">
  <circle cx="32" cy="32" r="30" stroke="url(#paint0_linear)" stroke-width="2" opacity="0.3"/>
  <circle cx="32" cy="32" r="20" fill="url(#paint1_radial)" fill-opacity="0.2"/>
  <path d="M39 22H25C22.7909 22 21 23.7909 21 26V38C21 40.2091 22.7909 42 25 42H39C41.2091 42 43 40.2091 43 38V26C43 23.7909 41.2091 22 39 22Z" fill="url(#paint2_linear)" fill-opacity="0.6"/>
  <path d="M29 30.5C29 29.1193 30.1193 28 31.5 28H40.5C41.8807 28 43 29.1193 43 30.5V38C43 40.2091 41.2091 42 39 42H31.5C30.1193 42 29 40.8807 29 39.5V30.5Z" fill="url(#paint3_linear)"/>
  <path d="M28 32L35 37L35 27L28 32Z" fill="#ffffff"/>
  <defs>
    <linearGradient id="paint0_linear" x1="32" y1="1" x2="32" y2="63" gradientUnits="userSpaceOnUse">
      <stop stop-color="#4ADE80"/>
      <stop offset="1" stop-color="#8B5CF6"/>
    </linearGradient>
    <radialGradient id="paint1_radial" cx="0" cy="0" r="1" gradientUnits="userSpaceOnUse" gradientTransform="translate(32 32) rotate(90) scale(20)">
      <stop stop-color="#8B5CF6"/>
      <stop offset="1" stop-color="#4ADE80"/>
    </radialGradient>
    <linearGradient id="paint2_linear" x1="21" y1="22" x2="43" y2="42" gradientUnits="userSpaceOnUse">
      <stop stop-color="#4ADE80"/>
      <stop offset="1" stop-color="#8B5CF6"/>
    </linearGradient>
    <linearGradient id="paint3_linear" x1="29" y1="28" x2="43" y2="42" gradientUnits="userSpaceOnUse">
      <stop stop-color="#8B5CF6"/>
      <stop offset="1" stop-color="#4ADE80"/>
    </linearGradient>
  </defs>
</svg>
