<svg width="64" height="64" viewBox="0 0 64 64" fill="none" xmlns="http://www.w3.org/2000/svg">
  <circle cx="32" cy="32" r="30" stroke="url(#paint0_linear)" stroke-width="2" opacity="0.3"/>
  <circle cx="32" cy="32" r="20" fill="url(#paint1_radial)" fill-opacity="0.2"/>
  <path d="M43.2 25.4668L39.4667 21.7335C38.6934 20.9601 37.44 20.9601 36.6667 21.7335L24.5334 33.8668C24.2667 34.1335 24.0934 34.4001 24 34.7601L22.4 41.6001C22.2267 42.4001 22.5334 43.2001 23.2 43.7335C23.6 44.0001 24.1334 44.1335 24.6667 44.0001L31.5067 42.4001C31.8667 42.3335 32.1334 42.1601 32.4 41.8935L43.2 31.0935C44 30.2935 44 29.0401 43.2 28.2668L39.4667 24.5335" fill="url(#paint2_linear)" fill-opacity="0.8"/>
  <path d="M35.7333 22.6664L41.3333 28.2664" stroke="white" stroke-width="2" stroke-miterlimit="10" stroke-linecap="round" stroke-linejoin="round"/>
  <path d="M24.5333 33.8L30.1333 39.4" stroke="white" stroke-width="2" stroke-miterlimit="10" stroke-linecap="round" stroke-linejoin="round"/>
  <path d="M32.1333 26.8L37.2 31.8667" fill="url(#paint3_linear)"/>
  <path d="M32.1333 26.8L37.2 31.8667" stroke="white" stroke-linecap="round" stroke-linejoin="round"/>
  <defs>
    <linearGradient id="paint0_linear" x1="32" y1="1" x2="32" y2="63" gradientUnits="userSpaceOnUse">
      <stop stop-color="#4ADE80"/>
      <stop offset="1" stop-color="#8B5CF6"/>
    </linearGradient>
    <radialGradient id="paint1_radial" cx="0" cy="0" r="1" gradientUnits="userSpaceOnUse" gradientTransform="translate(32 32) rotate(90) scale(20)">
      <stop stop-color="#8B5CF6"/>
      <stop offset="1" stop-color="#4ADE80"/>
    </radialGradient>
    <linearGradient id="paint2_linear" x1="22.2" y1="21.1335" x2="43.8667" y2="44.5335" gradientUnits="userSpaceOnUse">
      <stop stop-color="#4ADE80"/>
      <stop offset="1" stop-color="#8B5CF6"/>
    </linearGradient>
    <linearGradient id="paint3_linear" x1="32.1333" y1="26.8" x2="37.2" y2="31.8667" gradientUnits="userSpaceOnUse">
      <stop stop-color="#4ADE80"/>
      <stop offset="1" stop-color="#8B5CF6"/>
    </linearGradient>
  </defs>
</svg>
